<svg width="367" height="259" viewBox="0 0 367 259" fill="none" xmlns="http://www.w3.org/2000/svg">
<path d="M87.8434 177.022L72.8468 162.475C72.5451 162.181 72.1284 162 71.6668 162H20.0001C15.4051 162 11.6667 165.626 11.6667 170.083V250.917C11.6667 255.374 15.4051 259 20.0001 259H80.0001C84.5951 259 88.3334 255.374 88.3334 250.917V178.167C88.3334 177.719 88.1468 177.315 87.8434 177.022ZM73.3334 167.519L82.6434 176.55H73.3334V167.519ZM85.0001 250.917C85.0001 253.591 82.7568 255.767 80.0001 255.767H20.0001C17.2434 255.767 15.0001 253.591 15.0001 250.917V170.083C15.0001 167.409 17.2434 165.233 20.0001 165.233H70.0001V178.167C70.0001 179.061 70.7468 179.783 71.6668 179.783H85.0001V250.917Z" fill="white"/>
<path d="M26.6667 184.633C22.99 184.633 20 187.534 20 191.1C20 194.666 22.99 197.567 26.6667 197.567C30.3433 197.567 33.3333 194.666 33.3333 191.1C33.3333 187.534 30.3433 184.633 26.6667 184.633ZM26.6667 194.333C24.8283 194.333 23.3333 192.883 23.3333 191.1C23.3333 189.317 24.8283 187.867 26.6667 187.867C28.505 187.867 30 189.317 30 191.1C30 192.883 28.505 194.333 26.6667 194.333Z" fill="white"/>
<path d="M26.6667 202.417C22.99 202.417 20 205.317 20 208.883C20 212.45 22.99 215.35 26.6667 215.35C30.3433 215.35 33.3333 212.45 33.3333 208.883C33.3333 205.317 30.3433 202.417 26.6667 202.417ZM26.6667 212.117C24.8283 212.117 23.3333 210.667 23.3333 208.883C23.3333 207.1 24.8283 205.65 26.6667 205.65C28.505 205.65 30 207.1 30 208.883C30 210.667 28.505 212.117 26.6667 212.117Z" fill="white"/>
<path d="M26.6667 220.2C22.99 220.2 20 223.1 20 226.667C20 230.233 22.99 233.133 26.6667 233.133C30.3433 233.133 33.3333 230.233 33.3333 226.667C33.3333 223.1 30.3433 220.2 26.6667 220.2ZM26.6667 229.9C24.8283 229.9 23.3333 228.45 23.3333 226.667C23.3333 224.883 24.8283 223.433 26.6667 223.433C28.505 223.433 30 224.883 30 226.667C30 228.45 28.505 229.9 26.6667 229.9Z" fill="white"/>
<path d="M26.6667 237.983C22.99 237.983 20 240.884 20 244.45C20 248.016 22.99 250.917 26.6667 250.917C30.3433 250.917 33.3333 248.016 33.3333 244.45C33.3333 240.884 30.3433 237.983 26.6667 237.983ZM26.6667 247.683C24.8283 247.683 23.3333 246.233 23.3333 244.45C23.3333 242.667 24.8283 241.217 26.6667 241.217C28.505 241.217 30 242.667 30 244.45C30 246.233 28.505 247.683 26.6667 247.683Z" fill="white"/>
<path d="M80.0001 192.717H36.6667V195.95H80.0001V192.717Z" fill="white"/>
<path d="M61.6666 170.083H38.3333V173.317H61.6666V170.083Z" fill="white"/>
<path d="M66.6666 176.55H33.3333V179.783H66.6666V176.55Z" fill="white"/>
<path d="M80.0001 210.5H36.6667V213.733H80.0001V210.5Z" fill="white"/>
<path d="M80.0001 228.283H36.6667V231.517H80.0001V228.283Z" fill="white"/>
<path d="M80.0001 246.067H36.6667V249.3H80.0001V246.067Z" fill="white"/>
<path d="M53.3333 186.25H50V189.483H53.3333V186.25Z" fill="white"/>
<path d="M46.6666 186.25H43.3333V189.483H46.6666V186.25Z" fill="white"/>
<path d="M40.0001 186.25H36.6667V189.483H40.0001V186.25Z" fill="white"/>
<g clip-path="url(#clip0_421_259)">
<path d="M66.6667 131.667C60.235 131.667 55 136.902 55 143.333C55 144.255 55.745 145 56.6667 145H76.6667C77.5883 145 78.3333 144.255 78.3333 143.333C78.3333 136.902 73.0983 131.667 66.6667 131.667ZM58.5017 141.667C59.165 138.408 61.7417 135.848 65 135.183V138.333H68.3333V135.183C71.5917 135.85 74.1683 138.408 74.8317 141.667H58.5017Z" fill="white"/>
<path d="M153.333 116.667H150.41C150.318 116.435 150.223 116.205 150.12 115.973L152.188 113.905C152.84 113.253 152.84 112.2 152.188 111.548L145.118 104.478C144.773 104.133 144.318 103.983 143.867 104.005C146.508 102.603 148.333 99.8583 148.333 96.6667V53.3333C148.333 48.7383 144.595 45 140 45H63.3333C58.7383 45 55 48.7383 55 53.3333V96.6667C55 101.262 58.7383 105 63.3333 105H85.0833L78.7867 116.667H78.3333H75.8333C72.6167 116.667 70 119.283 70 122.5C70 125.717 72.6167 128.333 75.8333 128.333H111.667C111.667 129.255 112.412 130 113.333 130H116.257C116.348 130.232 116.443 130.462 116.547 130.693L114.478 132.762C113.827 133.413 113.827 134.467 114.478 135.118L121.548 142.188C122.2 142.84 123.253 142.84 123.905 142.188L125.973 140.12C126.205 140.223 126.435 140.318 126.667 140.41V143.333C126.667 144.255 127.412 145 128.333 145H138.333C139.255 145 140 144.255 140 143.333V140.41C140.232 140.318 140.462 140.223 140.693 140.12L142.762 142.188C143.413 142.84 144.467 142.84 145.118 142.188L152.188 135.118C152.84 134.467 152.84 133.413 152.188 132.762L150.12 130.693C150.223 130.462 150.318 130.232 150.41 130H153.333C154.255 130 155 129.255 155 128.333V118.333C155 117.412 154.255 116.667 153.333 116.667ZM58.3333 53.3333C58.3333 50.5767 60.5767 48.3333 63.3333 48.3333H140C142.757 48.3333 145 50.5767 145 53.3333V88.3333H58.3333V53.3333ZM63.3333 101.667C60.5767 101.667 58.3333 99.4233 58.3333 96.6667V91.6667H145V96.6667C145 99.4233 142.757 101.667 140 101.667H138.333H128.333H115.457H87.8767H63.3333ZM142.74 104.5L140.693 106.547C140.462 106.443 140.232 106.348 140 106.257V105C140.965 105 141.877 104.803 142.74 104.5ZM126.667 105V106.257C126.435 106.348 126.205 106.443 125.973 106.547L124.427 105H126.667ZM121.025 105L119.588 106.437L118.61 105H121.025ZM111.667 125H75.8333C74.455 125 73.3333 123.878 73.3333 122.5C73.3333 121.122 74.455 120 75.8333 120H78.3333H79.78H111.667V125ZM82.5742 116.665L88.87 105H114.577L117.19 108.835L114.478 111.547C113.827 112.198 113.827 113.252 114.478 113.903L116.547 115.972C116.443 116.203 116.348 116.433 116.257 116.665H113.333H82.5742ZM151.667 126.667H149.235C148.507 126.667 147.865 127.138 147.645 127.832C147.392 128.637 147.05 129.457 146.628 130.263C146.292 130.91 146.413 131.698 146.928 132.213L148.655 133.94L143.942 138.653L142.215 136.927C141.698 136.412 140.912 136.292 140.265 136.627C139.458 137.048 138.638 137.39 137.833 137.643C137.138 137.865 136.667 138.507 136.667 139.235V141.667H130V139.235C130 138.507 129.528 137.865 128.835 137.645C128.03 137.392 127.21 137.05 126.403 136.628C125.757 136.293 124.968 136.413 124.453 136.928L122.727 138.655L118.013 133.942L119.74 132.215C120.255 131.7 120.377 130.912 120.04 130.265C119.618 129.458 119.277 128.638 119.023 127.833C118.802 127.138 118.16 126.667 117.432 126.667H115V120H117.432C118.16 120 118.802 119.528 119.022 118.835C119.275 118.03 119.617 117.21 120.038 116.403C120.375 115.757 120.253 114.968 119.738 114.453L118.012 112.727L122.725 108.013L124.452 109.74C124.967 110.257 125.755 110.377 126.402 110.04C127.208 109.618 128.028 109.277 128.833 109.023C129.528 108.802 130 108.16 130 107.432V105H136.667V107.432C136.667 108.16 137.138 108.802 137.832 109.022C138.637 109.275 139.457 109.617 140.263 110.038C140.91 110.375 141.697 110.255 142.213 109.738L143.94 108.012L148.653 112.725L146.927 114.452C146.412 114.967 146.29 115.755 146.627 116.402C147.048 117.208 147.39 118.028 147.643 118.833C147.865 119.528 148.507 120 149.235 120H151.667V126.667Z" fill="white"/>
<path d="M133.333 113.333C127.818 113.333 123.333 117.818 123.333 123.333C123.333 128.848 127.818 133.333 133.333 133.333C138.848 133.333 143.333 128.848 143.333 123.333C143.333 117.818 138.848 113.333 133.333 113.333ZM133.333 130C129.657 130 126.667 127.01 126.667 123.333C126.667 119.657 129.657 116.667 133.333 116.667C137.01 116.667 140 119.657 140 123.333C140 127.01 137.01 130 133.333 130Z" fill="white"/>
<path d="M87.8451 57.845L85.4884 55.4883L73.8218 67.155C73.1701 67.8067 73.1701 68.86 73.8218 69.5117L85.4884 81.1783L87.8451 78.8217L77.3568 68.3333L87.8451 57.845Z" fill="white"/>
<path d="M124.512 67.155L112.845 55.4883L110.488 57.845L120.977 68.3333L110.488 78.8217L112.845 81.1783L124.512 69.5117C125.163 68.86 125.163 67.8067 124.512 67.155Z" fill="white"/>
<path d="M105.17 50.9306L90.1741 80.9218L93.1554 82.4125L108.151 52.4212L105.17 50.9306Z" fill="white"/>
<path d="M123.333 78.3333H120V81.6667H123.333V78.3333Z" fill="white"/>
<path d="M130 78.3333H126.667V81.6667H130V78.3333Z" fill="white"/>
<path d="M136.667 78.3333H133.333V81.6667H136.667V78.3333Z" fill="white"/>
</g>
<path fill-rule="evenodd" clip-rule="evenodd" d="M295.125 67.1875V85.9375C295.125 88.5266 297.223 90.625 299.812 90.625C307.625 90.625 327.938 90.625 335.75 90.625C338.339 90.625 340.438 88.5266 340.438 85.9375C340.438 82.7047 340.438 78.125 340.438 78.125C340.438 77.2625 339.737 76.5625 338.875 76.5625C338.013 76.5625 337.312 77.2625 337.312 78.125V85.9375C337.312 86.8 336.612 87.5 335.75 87.5C327.938 87.5 307.625 87.5 299.812 87.5C298.95 87.5 298.25 86.8 298.25 85.9375V67.1875C298.25 66.325 297.55 65.625 296.688 65.625C295.825 65.625 295.125 66.325 295.125 67.1875ZM295.125 39.0594V57.0313C295.125 57.8938 295.825 58.5938 296.688 58.5938C297.55 58.5938 298.25 57.8938 298.25 57.0313V45.3141C299.555 46.2938 301.177 46.875 302.934 46.875H335.75C336.164 46.875 336.563 47.0391 336.855 47.3328C337.148 47.625 337.312 48.0235 337.312 48.4375V71.875C337.312 72.7375 338.013 73.4375 338.875 73.4375C339.737 73.4375 340.438 72.7375 340.438 71.875V63.6C350.869 63.525 359.584 56.1891 361.78 46.4C361.969 45.5578 361.438 44.7219 360.597 44.5328C359.755 44.3453 358.919 44.875 358.73 45.7156C356.848 54.1094 349.378 60.4 340.438 60.4735V48.4375C340.438 47.1938 339.944 46.0016 339.064 45.1235C338.186 44.2438 336.994 43.75 335.75 43.75H335.661V32.8125C335.661 31.95 334.963 31.25 334.098 31.25H302.934C298.622 31.25 295.125 34.7469 295.125 39.0594ZM334.188 56.25C334.188 53.661 332.089 51.5625 329.5 51.5625H306.062C303.473 51.5625 301.375 53.661 301.375 56.25C301.375 57.7203 301.375 59.4672 301.375 60.9375C301.375 63.5266 303.473 65.625 306.062 65.625H329.5C332.089 65.625 334.188 63.5266 334.188 60.9375V56.25ZM295.125 60.1563H288.291C280.861 60.1563 274.812 54.4266 274.812 46.9969C274.812 39.6125 280.763 33.6078 288.125 33.5188C288.872 33.5094 289.509 32.9719 289.644 32.2375C291.675 21.0906 301.447 12.6297 313.177 12.6297C321.32 12.6297 328.519 16.7063 332.839 22.9281C333.23 23.4906 333.941 23.7328 334.592 23.5266C336.387 22.961 338.297 22.6563 340.278 22.6563C349.428 22.6563 357.07 29.1688 358.814 37.8094C358.984 38.6547 359.809 39.2016 360.655 39.0313C361.5 38.861 362.048 38.036 361.877 37.1906C359.845 27.1235 350.942 19.5313 340.278 19.5313C338.367 19.5313 336.512 19.775 334.744 20.2344C329.805 13.7172 321.98 9.5047 313.177 9.5047C300.344 9.5047 289.588 18.461 286.82 30.4578C278.345 31.2016 271.688 38.3281 271.688 46.9969C271.688 56.1688 279.119 63.2813 288.291 63.2813H295.125C295.987 63.2813 296.688 62.5813 296.688 61.7188C296.688 60.8563 295.987 60.1563 295.125 60.1563ZM331.062 56.25V60.9375C331.062 61.8 330.362 62.5 329.5 62.5H306.062C305.2 62.5 304.5 61.8 304.5 60.9375V56.25C304.5 55.3875 305.2 54.6875 306.062 54.6875H329.5C330.362 54.6875 331.062 55.3875 331.062 56.25ZM332.536 37.5V34.375H302.934C300.347 34.375 298.25 36.4719 298.25 39.0594V39.0656C298.25 41.6531 300.347 43.75 302.934 43.75H332.536V40.625H312.312C311.45 40.625 310.75 39.925 310.75 39.0625C310.75 38.2 311.45 37.5 312.312 37.5H332.536ZM298.062 28.8672C298.062 28.8672 304.508 16.9719 318.197 20.2688C319.034 20.4703 319.88 19.9547 320.081 19.1156C320.283 18.2781 319.767 17.4328 318.928 17.2313C302.856 13.3609 295.313 27.3828 295.313 27.3828C294.903 28.1422 295.186 29.0906 295.945 29.5C296.705 29.9094 297.653 29.6266 298.062 28.8672Z" fill="white"/>
<defs>
<clipPath id="clip0_421_259">
<rect width="100" height="100" fill="white" transform="translate(55 45)"/>
</clipPath>
</defs>
</svg>
